<svg id="visual" viewBox="0 0 900 600" width="900" height="600" xmlns="http://www.w3.org/2000/svg" xmlns:xlink="http://www.w3.org/1999/xlink" version="1.1"><path d="M0 394L21.5 409.5C43 425 86 456 128.8 477.3C171.7 498.7 214.3 510.3 257.2 496.8C300 483.3 343 444.7 385.8 427.7C428.7 410.7 471.3 415.3 514.2 428.8C557 442.3 600 464.7 642.8 474.7C685.7 484.7 728.3 482.3 771.2 483.2C814 484 857 488 878.5 490L900 492L900 601L878.5 601C857 601 814 601 771.2 601C728.3 601 685.7 601 642.8 601C600 601 557 601 514.2 601C471.3 601 428.7 601 385.8 601C343 601 300 601 257.2 601C214.3 601 171.7 601 128.8 601C86 601 43 601 21.5 601L0 601Z" fill="#FFFFFF" stroke-linecap="round" stroke-linejoin="miter"></path></svg>